<?xml version="1.0" encoding="UTF-8"?>
<svg xmlns="http://www.w3.org/2000/svg" viewBox="0 0 1024 520" width="1024" height="520" preserveAspectRatio="xMidYMid slice">
<rect x="0" y="0" width="100%" height="100%" fill="#0b1220"/>
<g id="grid" opacity="0.4"><path d="M 0 0 V 520" stroke="#2a3b5f" stroke-width="0.6"/><path d="M 32 0 V 520" stroke="#2a3b5f" stroke-width="0.6"/><path d="M 64 0 V 520" stroke="#2a3b5f" stroke-width="0.6"/><path d="M 96 0 V 520" stroke="#2a3b5f" stroke-width="0.6"/><path d="M 128 0 V 520" stroke="#2a3b5f" stroke-width="0.6"/><path d="M 160 0 V 520" stroke="#2a3b5f" stroke-width="0.6"/><path d="M 192 0 V 520" stroke="#2a3b5f" stroke-width="0.6"/><path d="M 224 0 V 520" stroke="#2a3b5f" stroke-width="0.6"/><path d="M 256 0 V 520" stroke="#2a3b5f" stroke-width="0.6"/><path d="M 288 0 V 520" stroke="#2a3b5f" stroke-width="0.6"/><path d="M 320 0 V 520" stroke="#2a3b5f" stroke-width="0.6"/><path d="M 352 0 V 520" stroke="#2a3b5f" stroke-width="0.6"/><path d="M 384 0 V 520" stroke="#2a3b5f" stroke-width="0.6"/><path d="M 416 0 V 520" stroke="#2a3b5f" stroke-width="0.6"/><path d="M 448 0 V 520" stroke="#2a3b5f" stroke-width="0.6"/><path d="M 480 0 V 520" stroke="#2a3b5f" stroke-width="0.6"/><path d="M 512 0 V 520" stroke="#2a3b5f" stroke-width="0.6"/><path d="M 544 0 V 520" stroke="#2a3b5f" stroke-width="0.6"/><path d="M 576 0 V 520" stroke="#2a3b5f" stroke-width="0.6"/><path d="M 608 0 V 520" stroke="#2a3b5f" stroke-width="0.6"/><path d="M 640 0 V 520" stroke="#2a3b5f" stroke-width="0.6"/><path d="M 672 0 V 520" stroke="#2a3b5f" stroke-width="0.6"/><path d="M 704 0 V 520" stroke="#2a3b5f" stroke-width="0.6"/><path d="M 736 0 V 520" stroke="#2a3b5f" stroke-width="0.6"/><path d="M 768 0 V 520" stroke="#2a3b5f" stroke-width="0.6"/><path d="M 800 0 V 520" stroke="#2a3b5f" stroke-width="0.6"/><path d="M 832 0 V 520" stroke="#2a3b5f" stroke-width="0.6"/><path d="M 864 0 V 520" stroke="#2a3b5f" stroke-width="0.6"/><path d="M 896 0 V 520" stroke="#2a3b5f" stroke-width="0.6"/><path d="M 928 0 V 520" stroke="#2a3b5f" stroke-width="0.6"/><path d="M 960 0 V 520" stroke="#2a3b5f" stroke-width="0.6"/><path d="M 992 0 V 520" stroke="#2a3b5f" stroke-width="0.6"/><path d="M 1024 0 V 520" stroke="#2a3b5f" stroke-width="0.6"/><path d="M 0 0 H 1024" stroke="#2a3b5f" stroke-width="0.6"/><path d="M 0 32 H 1024" stroke="#2a3b5f" stroke-width="0.6"/><path d="M 0 64 H 1024" stroke="#2a3b5f" stroke-width="0.6"/><path d="M 0 96 H 1024" stroke="#2a3b5f" stroke-width="0.6"/><path d="M 0 128 H 1024" stroke="#2a3b5f" stroke-width="0.6"/><path d="M 0 160 H 1024" stroke="#2a3b5f" stroke-width="0.6"/><path d="M 0 192 H 1024" stroke="#2a3b5f" stroke-width="0.6"/><path d="M 0 224 H 1024" stroke="#2a3b5f" stroke-width="0.6"/><path d="M 0 256 H 1024" stroke="#2a3b5f" stroke-width="0.6"/><path d="M 0 288 H 1024" stroke="#2a3b5f" stroke-width="0.6"/><path d="M 0 320 H 1024" stroke="#2a3b5f" stroke-width="0.6"/><path d="M 0 352 H 1024" stroke="#2a3b5f" stroke-width="0.6"/><path d="M 0 384 H 1024" stroke="#2a3b5f" stroke-width="0.6"/><path d="M 0 416 H 1024" stroke="#2a3b5f" stroke-width="0.6"/><path d="M 0 448 H 1024" stroke="#2a3b5f" stroke-width="0.6"/><path d="M 0 480 H 1024" stroke="#2a3b5f" stroke-width="0.6"/><path d="M 0 512 H 1024" stroke="#2a3b5f" stroke-width="0.6"/></g>
<g id="countries"><path id="country-UZ" d="M624.933,246.552L625.035,246.471L625.216,246.397L625.51,246.544L625.77,246.728L625.827,246.817L625.815,246.912L625.193,247.273L624.82,247.442L624.65,247.471L624.605,247.522L624.481,247.926L624.243,247.999L623.938,248.131L623.723,248.314L623.384,248.76L622.524,249.41L622.513,249.541L622.592,249.65L622.863,249.723L623.237,249.92L623.44,250.072L623.983,249.876L624.119,249.92L624.266,250.123L624.413,250.704L624.662,250.857L624.978,250.98L625.182,251.016L625.442,251.161L625.804,251.212L626.041,251.161L626.335,251.284L626.381,251.233L626.415,250.37L626.663,250.516L626.81,250.508L626.935,250.407L627.003,250.261L627.048,249.978L626.991,249.694L627.105,249.563L627.184,249.534L627.252,249.57L627.286,249.643L627.297,249.898L627.478,250.007L627.591,250.072L627.693,250.29L627.794,250.501L627.862,250.987L628.111,251.016L628.405,251.11L628.597,251.016L628.756,251.074L628.812,251.306L628.801,251.516L628.824,251.689L628.903,251.74L629.163,251.631L629.378,251.617L629.581,251.718L629.83,251.87L630.192,252.281L630.305,252.339L630.848,252.368L630.961,252.454L631.153,252.454L631.346,252.375L631.798,252.512L631.809,252.584L631.73,252.685L630.667,253.246L630.588,253.419L630.373,253.641L630.136,253.763L630.022,253.771L629.502,253.548L629.446,253.598L629.4,253.692L629.4,253.792L629.514,254.022L629.457,254.172L629.367,254.28L629.039,254.186L628.971,254.122L628.971,254.057L628.846,254.057L628.654,254.122L628.281,254.53L628.145,254.737L628.1,254.866L627.93,254.938L627.749,254.966L627.523,255.159L627.274,255.302L627.195,255.195L627.138,255.073L627.071,255.038L626.924,255.066L626.731,255.073L626.539,254.938L626.279,254.795L626.053,254.752L625.397,254.816L625.069,254.88L624.967,254.945L624.786,254.966L624.006,255.102L623.847,255.052L623.734,254.83L623.632,254.594L623.429,254.509L623.203,254.444L623.123,254.351L623.112,254.237L623.146,254.122L623.157,254.065L623.678,253.613L624.153,253.203L624.198,253.174L624.232,253.095L624.311,252.951L624.311,252.879L623.96,252.714L623.949,252.642L624.017,252.563L624.017,252.462L623.768,252.166L623.338,251.696L623.214,251.653L623.123,251.682L622.954,252.13L622.875,252.245L622.388,252.541L621.97,252.75L621.246,253.11L621.054,253.218L620.918,253.203L620.794,253.131L620.375,252.764L620.115,252.642L619.934,252.764L619.787,252.944L619.798,253.311L619.629,253.505L619.459,253.598L619.764,254.58L619.742,254.709L619.504,254.745L619.674,255.116L619.527,255.159L619.165,255.073L618.667,255.016L617.717,255.18L617.65,255.245L617.627,255.323L617.683,255.402L618.136,255.409L618.588,255.366L618.713,255.437L618.724,255.559L618.679,255.637L618.532,255.651L618.204,255.722L618.158,255.801L618.147,255.872L618.26,256.093L618.385,256.228L618.407,256.306L618.351,256.377L618.283,256.406L618.181,256.299L618.113,256.32L618.091,256.413L618.057,256.519L617.978,256.597L617.83,256.555L617.683,256.59L617.593,256.981L617.514,257.42L617.265,257.717L617.129,257.823L616.926,257.852L616.62,257.816L616.439,257.774L615.919,257.71L615.388,257.59L614.788,257.477L614.234,257.739L614.076,257.894L613.974,258.043L613.872,258.113L613.635,259.023L613.657,259.122L613.793,259.206L614.471,259.389L614.573,259.466L614.63,259.558L614.652,259.965L614.709,260.021L614.946,260.07L615.286,260.07L615.546,260.028L615.817,260.063L615.998,260.155L616.089,260.295L616.134,260.442L615.817,261.331L615.851,261.659L615.942,262.119L616.123,262.481L616.462,262.835L616.722,263.065L616.779,263.169L616.79,263.335L616.745,263.55L616.598,263.883L616.417,264.173L616.224,264.298L615.953,264.671L615.704,265.127L615.241,265.719L615.093,266.056L615.037,267.01L614.913,267.297L614.901,267.188L614.732,267.078L614.438,267.099L614.245,267.044L614.155,266.921L613.917,266.955L613.533,267.147L613.148,267.051L612.752,266.653L611.995,266.509L611.033,266.598L610.988,266.166L610.999,265.609L611.045,264.864L611.361,264.284L611.361,264.173L611.293,264.07L611.192,263.973L610.615,263.814L610.445,263.724L610.219,263.543L609.936,263.349L609.687,263.217L609.303,263.037L608.941,262.94L608.726,263.016L608.534,263.113L608.353,263.113L608.172,263.065L607.505,262.62L606.487,261.854L605.684,261.324L605.175,261.065L605.062,260.981L604.779,260.743L604.078,260.091L603.614,260.19L602.958,259.762L602.359,259.347L602.234,259.241L601.556,258.473L600.877,257.972L600.142,257.427L599.667,257.087L598.864,256.505L598.479,256.157L598.344,256.029L598.208,255.779L598.004,254.566L597.755,254.007L597.416,253.699L597.122,253.11L596.873,252.238L596.681,251.668L596.523,251.407L596.195,251.118L595.708,250.799L595.245,250.646L595.075,250.653L594.996,250.69L594.894,250.748L594.713,250.987L594.442,251.009L594.249,251.002L594.057,250.915L593.469,250.842L593.265,250.762L592.915,250.77L592.157,250.893L591.965,250.871L591.173,250.341L590.823,250.13L590.755,250.014L590.755,249.81L590.868,249.519L590.97,249.315L590.924,249.096L590.777,248.862L590.777,248.614L590.879,248.475L591.094,248.519L591.173,248.431L591.139,248.299L591.026,248.204L590.879,247.992L590.427,247.794L590.359,247.713L590.381,247.625L590.461,247.522L590.472,247.317L590.483,247.045L590.54,246.905L590.562,246.795L590.495,246.706L590.336,246.603L590.099,246.353L589.793,246.323L588.821,246.331L588.515,246.235L588.267,246.094L588.029,245.555L587.905,245.429L587.78,245.378L587.509,245.363L587.181,245.311L587.011,245.215L586.547,244.726L586.106,244.288L585.925,244.703L585.756,244.785L585.371,244.748L585.077,244.674L584.908,244.77L584.738,244.933L584.76,245.044L584.896,245.156L585.168,245.363L585.575,245.88L585.756,246.161L585.778,246.257L585.744,246.331L585.688,246.367L585.609,246.367L585.507,246.36L585.439,246.279L585.416,246.131L585.281,245.91L585.145,245.784L584.987,245.703L584.772,245.644L584.489,245.54L584.342,245.533L584.206,245.659L584.082,245.821L584.014,246.183L583.799,246.625L583.675,246.802L583.268,246.905L582.318,246.942L582.024,247.082L581.831,247.243L581.469,247.787L581.221,247.962L581.006,248.204L581.062,248.994L581.175,249.912L581.356,250.167L581.469,250.247L581.492,250.334L581.413,250.414L581.322,250.516L581.175,250.697L581.006,250.69L580.678,250.646L580.406,250.595L579.479,250.545L578.732,250.501L577.907,250.45L577.907,249.49L577.907,248.526L577.907,247.559L577.895,246.581L577.895,245.607L577.895,244.629L577.895,243.648L577.895,242.655L577.895,241.666L577.895,240.674L577.895,239.678L577.895,238.678L577.895,237.666L577.895,236.658L577.895,235.646L577.895,234.63L578.291,234.499L578.789,234.344L579.264,234.19L579.818,234.005L580.463,233.796L581.006,233.625L581.65,233.416L582.148,233.254L582.612,233.098L583.211,232.92L584.138,232.64L584.647,232.492L585.168,232.329L585.665,232.181L586.005,232.127L586.355,232.337L586.796,232.632L587.226,232.928L587.656,233.223L588.097,233.517L588.527,233.811L588.968,234.105L589.398,234.399L589.827,234.692L590.268,234.977L590.698,235.269L591.128,235.561L591.569,235.853L591.999,236.145L592.429,236.436L592.87,236.727L593.299,237.017L593.707,237.285L593.888,237.483L593.989,237.925L594.182,238.275L594.532,238.647L594.894,239.034L595.335,239.549L595.641,239.897L595.957,240.259L596.466,240.847L596.794,241.216L597.054,241.231L597.575,241.141L598.264,241.028L598.819,240.93L599.486,240.817L600.119,240.712L600.617,240.629L601.363,240.697L602.098,240.757L602.63,240.802L603.15,240.847L603.761,240.9L604.1,240.93L604.496,240.96L604.666,240.877L605.005,240.689L605.322,240.523L605.661,240.342L605.955,240.252L606.261,240.538L606.509,240.862L606.781,241.208L607.097,241.539L607.403,241.742L607.81,242.004L608.036,242.461L608.353,243.066L608.556,243.461L608.771,243.871L609.077,243.707L609.405,243.536L609.71,243.379L609.665,243.886L609.631,244.34L609.586,245.03L609.54,245.6L609.439,246.272L609.427,246.78L609.427,247.229L609.416,247.581L609.993,247.596L610.423,247.61L610.954,247.625L611.011,248.072L611.078,248.694L611.192,249.257L611.282,249.73L611.418,250.341L611.486,250.668L611.621,251.052L611.746,251.139L611.949,251.204L612.651,251.161L613.239,251.118L613.702,251.089L614.189,251.06L614.845,251.016L615.06,251.11L615.252,251.045L615.467,250.98L615.648,251.255L615.738,251.393L615.863,251.545L616.032,251.675L615.953,251.964L615.851,252.375L615.817,252.591L616.021,252.822L616.179,252.951L616.586,253.225L616.971,253.376L617.231,253.419L617.469,253.361L617.559,253.21L617.536,252.995L617.423,252.771L617.435,252.505L617.502,252.31L617.751,251.957L617.989,251.624L618.351,251.284L618.769,250.944L618.95,250.697L619.018,250.269L619.301,250.021L619.595,249.876L619.968,249.745L620.07,249.534L620.59,249.169L620.895,248.987L621.291,248.877L621.834,248.643L622.253,248.358L622.66,247.831L622.988,247.486L623.259,247.273L623.497,247.265L623.655,247.434L623.791,247.449L623.881,247.368L624.04,247.148L624.198,246.89L624.356,246.78L624.662,246.721ZM624.006,252.058L623.994,251.957L623.904,251.79L623.757,251.696L623.689,251.733L623.746,251.87L623.915,252.072ZM625.747,256.37L625.589,256.406L625.295,256.398L625.137,256.356L625.238,256.029L625.238,255.957L625.227,255.95L625.148,255.908L625.012,255.772L624.978,255.566L625.024,255.38L625.114,255.302L625.171,255.316L625.352,255.601L625.51,255.687L625.815,255.73L625.657,256.014L625.77,256.313ZM627.546,256.135L627.466,256.306L627.319,256.263L627.195,256.15L627.24,256.057L627.41,256.007L627.5,255.957L627.58,255.95Z" fill="#7bb3f020" stroke="#7bb3f0" stroke-width="0.8"/><path id="country-TR" d="M483.628,255.366L482.904,255.494L482.689,255.373L482.915,255.123L483.334,254.966L483.469,254.952L483.65,255.195ZM532.452,249.636L532.656,249.716L533.052,249.825L533.301,249.956L533.436,249.992L533.753,249.723L534.239,249.73L534.658,249.767L534.873,249.81L535.133,249.898L535.461,249.963L535.585,249.832L535.778,249.461L535.845,249.41L535.902,249.373L536.139,249.344L536.366,249.373L536.467,249.439L536.569,249.738L536.841,249.847L537.316,250.327L537.598,250.516L537.666,250.595L537.576,250.69L537.61,250.813L537.779,250.965L538.006,251.023L538.266,251.002L538.401,251.06L538.492,251.146L538.515,251.27L538.515,251.349L538.56,251.53L538.763,251.776L538.99,251.928L539.114,252.094L539.318,252.649L539.408,252.959L539.374,253.261L539.227,253.562L538.922,253.943L539.001,254.1L539.069,254.308L539.046,254.466L539.261,254.945L539.363,255.245L539.284,255.316L539.227,255.409L539.623,255.637L540.087,255.836L540.29,255.872L540.833,255.779L541.184,255.765L541.534,255.943L542.032,256.391L542.575,256.966L542.688,257.144L542.733,257.222L542.846,257.356L542.733,257.356L542.552,257.229L542.122,256.874L541.896,257.03L541.704,257.293L541.5,258.29L541.331,258.396L541.025,258.389L540.663,258.36L540.415,258.41L540.347,258.473L540.381,258.579L540.46,258.741L540.505,258.946L540.528,259.115L540.652,259.269L540.833,259.417L540.844,259.565L540.81,259.776L540.776,259.93L540.731,260.021L540.81,260.267L541.003,260.554L541.127,260.659L541.082,261.205L541.15,261.449L541.206,261.784L541.184,262.335L541.218,262.467L541.274,262.516L541.455,262.536L541.625,262.585L541.693,262.676L541.681,262.745L541.466,262.995L541.444,263.176L541.376,263.432L541.308,263.578L541.116,263.862L540.991,264.146L540.935,264.381L540.98,264.492L541.331,264.526L541.523,264.692L542.032,265.03L542.122,265.168L541.987,265.375L541.987,265.457L542.055,265.567L542.088,265.76L542.077,265.973L542.077,266.255L542.168,266.303L542.518,266.564L542.767,266.831L542.778,266.914L542.654,267.119L542.688,267.359L542.677,267.414L542.575,267.325L542.382,267.29L542.179,267.284L542.055,267.352L541.828,267.537L541.534,267.742L541.297,267.933L541.161,268.063L541.048,268.042L540.957,267.926L540.912,267.769L540.924,267.174L540.878,266.989L540.765,266.859L540.629,266.784L540.482,266.742L540.313,266.736L540.087,266.914L539.759,267.092L539.261,267.078L538.922,267.044L538.752,267.01L538.096,266.736L537.96,266.729L537.712,266.612L537.429,266.523L536.931,266.694L536.716,266.653L536.422,266.509L536.32,266.55L535.992,266.989L535.427,267.468L535.122,267.544L534.975,267.071L534.839,266.886L534.771,266.859L534.624,266.804L534.522,266.838L534.183,267.16L533.64,267.359L533.188,267.475L532.464,267.626L531.921,267.694L531.683,267.701L531.174,267.639L530.722,267.544L530.27,267.55L529.93,267.591L529.127,267.94L527.759,268.656L526.718,269.004L526.142,269.146L525.689,269.221L524.909,269.228L524.275,269.174L523.834,269.18L523.586,269.092L523.246,268.806L522.816,268.513L522.635,268.452L522.387,268.39L522.025,268.363L521.131,268.779L520.849,268.895L520.543,268.983L519.932,269.235L519.65,269.378L519.31,269.364L518.869,269.323L518.496,269.337L518.236,269.14L518.1,268.922L517.58,268.786L517.207,268.752L517.116,268.847L517.015,269.146L516.856,269.907L516.834,270.104L517.162,270.856L517.139,270.971L516.913,271.011L516.641,271.025L516.46,271.092L516.325,271.214L516.234,271.869L515.929,271.99L515.77,272.125L515.623,272.529L515.544,272.535L515.035,272.232L514.809,272.206L515.001,271.889L514.786,271.261L514.549,270.68L514.775,270.301L515.239,269.846L515.736,269.31L515.736,268.983L515.703,268.731L515.567,268.561L515.295,268.329L514.843,268.574L514.515,268.847L514.311,268.901L514.074,269.058L513.961,269.337L513.689,269.554L513.237,269.643L512.558,269.405L511.823,269.051L511.405,268.765L511.066,268.697L510.749,268.82L509.799,269.527L508.928,270.558L508.713,270.734L507.899,271.173L507.356,271.322L507.107,271.288L506.033,271.484L505.49,271.511L505.071,271.741L504.257,271.491L503.759,271.167L503.465,270.842L502.99,270.131L502.64,269.799L501.882,269.493L500.536,268.758L500.185,268.677L499.281,268.568L498.319,268.499L498.116,268.772L498.048,269.833L497.878,270.124L497.81,270.673L497.697,270.835L497.505,270.937L497.222,270.761L497.019,270.687L496.555,270.91L495.628,271.228L495.311,271.275L494.248,270.876L493.852,270.619L493.603,270.334L493.513,269.853L493.354,269.581L493.332,269.391L493.275,269.18L493.06,269.092L492.823,269.255L492.574,269.248L492.269,269.146L491.533,268.745L490.968,268.711L490.629,269.208L490.357,269.364L490.074,269.412L490.052,269.269L490.278,268.949L489.396,269.01L488.932,269.248L488.57,269.214L488.299,269.106L488.333,268.969L488.615,268.922L488.853,268.813L489.803,268.724L490.029,268.636L490.267,268.288L490.719,267.988L490.776,267.858L490.425,267.858L488.966,267.947L487.96,267.899L487.846,268.042L487.688,268.07L487.654,267.66L487.812,267.475L488.027,267.496L488.548,267.331L488.502,266.996L488.129,266.763L488.05,266.633L487.779,266.598L487.552,266.44L487.507,266.035L487.337,265.588L487.077,265.375L487.111,265.257L487.575,265.106L487.665,264.485L487.598,264.097L487.371,264.07L486.693,263.765L486.489,263.793L486.263,263.46L485.867,263.224L485.675,263.308L485.551,263.419L485.37,263.37L485.075,263.162L484.77,263.044L484.634,262.905L484.804,262.536L485.03,262.543L485.075,262.251L484.895,261.763L484.917,261.512L485.109,261.449L485.336,261.491L485.573,261.784L485.641,262.07L485.596,262.342L485.743,262.606L485.845,262.676L485.912,262.39L486.014,262.342L486.15,262.46L486.433,262.523L487.179,262.356L487.315,262.209L486.772,262.223L486.58,262.091L486.354,261.784L486.229,261.505L486.195,261.372L486.127,261.17L486.206,261.065L486.58,260.904L486.908,260.456L486.772,260.33L486.614,260.267L486.444,260.309L486.286,260.155L486.263,259.944L486.399,259.769L486.41,259.53L485.98,258.946L485.867,258.819L485.958,258.621L486.286,258.304L486.591,257.901L486.546,257.767L486.32,257.717L485.245,257.887L484.827,258.036L484.08,258.106L484.024,257.887L484.046,257.689L484.216,257.335L484.193,256.448L484.295,255.972L484.714,255.829L485.223,255.116L486.048,254.28L486.908,254.301L487.247,254.065L487.756,254.05L487.858,254.222L487.914,254.38L488.367,254.616L489.158,254.58L489.351,254.487L489.532,254.358L489.17,253.95L489.283,253.828L489.611,253.814L489.973,253.914L489.995,254.007L489.893,254.136L489.78,254.365L489.893,254.408L490.911,254.272L491.986,254.38L492.325,254.322L493.173,254.322L493.32,254.186L493.072,254.007L492.823,253.943L492.653,253.857L492.483,253.728L493.015,253.333L493.32,253.253L494.745,253.009L495.809,252.887L495.82,252.793L495.662,252.793L494.293,252.591L493.965,252.433L493.513,252.058L493.411,251.949L493.298,251.769L493.366,251.371L493.445,251.06L493.614,250.878L494.157,250.849L496.035,251.168L497.381,250.973L498.84,251.443L500.231,251.349L500.525,251.139L500.875,250.465L502.843,249.33L503.533,248.746L504.28,248.417L505.546,248.058L506.609,247.581L506.915,247.53L509.46,247.757L511.213,247.787L512.016,247.331L512.491,247.486L512.445,247.647L512.355,247.787L512.389,248.065L512.66,248.468L512.932,248.746L513.757,249.147L514.888,248.811L515.069,248.848L515.307,248.943L515.703,250.014L516.019,250.392L516.415,250.653L516.743,250.704L516.981,250.436L517.173,250.327L517.58,250.283L518.259,250.646L518.496,251.031L519.638,251.32L520.69,251.465L521.143,251.79L522.624,252.108L523.178,252.058L524.106,251.725L525.904,251.356L527.103,251.87L527.431,251.935L527.714,251.892L528.109,252.036L528.539,251.957L529.862,251.349L530.281,251.002L530.722,250.915L531.107,250.704L532.147,250.029ZM490.052,247.735L489.973,248.212L490.165,248.746L490.629,249.475L491.092,249.847L492.981,250.762L493.332,250.842L493.253,251.212L493.139,251.545L493.015,251.761L492.461,251.906L490.934,251.501L490.549,251.458L490.278,251.545L489.769,251.834L489.215,251.74L488.435,251.906L488.22,252.462L487.677,253.095L486.783,253.605L486.15,253.878L485.2,254.852L484.759,255.423L484.578,255.53L484.363,255.623L484.431,255.345L484.544,255.095L484.521,254.909L484.521,254.637L484.838,254.322L485.132,254.1L485.992,253.684L486.218,253.347L485.539,253.354L484.861,253.433L484.431,253.383L484.058,253.412L483.933,253.11L483.843,252.93L483.945,252.879L484.069,252.836L484.284,252.519L484.487,252.281L484.77,251.985L484.838,251.812L484.838,251.646L484.77,251.53L484.759,251.393L484.748,251.197L484.77,250.799L485.415,250.363L485.618,250.319L485.686,250.116L485.641,249.657L485.551,249.286L485.437,249.257L485.279,249.147L485.177,249.023L485.019,248.884L484.736,248.797L484.725,248.68L484.759,248.563L484.861,248.438L485.336,248.336L485.392,248.248L485.449,248.036L485.551,247.823L485.664,247.75L485.856,247.757L486.24,247.706L486.501,247.64L486.772,247.486L486.908,247.353L487.473,247.273L487.632,247.207L487.79,247.265L488.005,247.493L488.355,247.823L488.548,247.933L488.695,247.889L488.943,247.765L489.192,247.765L489.385,247.787L489.486,247.684L489.633,247.662Z" fill="#e67e7e40" stroke="#e67e7e" stroke-width="0.8"/><path id="country-KZ" d="M559.698,235.246L559.596,235.377L559.426,235.354L559.11,234.884L559.2,234.406L559.313,234.306L559.472,234.244L559.494,234.344L559.268,234.561L559.245,234.83L559.438,235.131ZM560.105,234.73L559.992,234.792L559.924,234.507L560.048,234.267L560.218,234.236L560.162,234.615ZM567.547,232.772L567.49,232.819L567.287,232.695L567.151,232.492L567.321,232.251L567.479,232.29L567.581,232.547ZM624.933,246.552L624.662,246.721L624.356,246.78L624.198,246.89L624.04,247.148L623.881,247.368L623.791,247.449L623.655,247.434L623.497,247.265L623.259,247.273L622.988,247.486L622.66,247.831L622.253,248.358L621.834,248.643L621.291,248.877L620.895,248.987L620.59,249.169L620.07,249.534L619.968,249.745L619.595,249.876L619.301,250.021L619.018,250.269L618.95,250.697L618.769,250.944L618.351,251.284L617.989,251.624L617.751,251.957L617.502,252.31L617.435,252.505L617.423,252.771L617.536,252.995L617.559,253.21L617.469,253.361L617.231,253.419L616.971,253.376L616.586,253.225L616.179,252.951L616.021,252.822L615.817,252.591L615.851,252.375L615.953,251.964L616.032,251.675L615.863,251.545L615.738,251.393L615.648,251.255L615.467,250.98L615.252,251.045L615.06,251.11L614.845,251.016L614.189,251.06L613.702,251.089L613.239,251.118L612.651,251.161L611.949,251.204L611.746,251.139L611.621,251.052L611.486,250.668L611.418,250.341L611.282,249.73L611.192,249.257L611.078,248.694L611.011,248.072L610.954,247.625L610.423,247.61L609.993,247.596L609.416,247.581L609.427,247.229L609.427,246.78L609.439,246.272L609.54,245.6L609.586,245.03L609.631,244.34L609.665,243.886L609.71,243.379L609.405,243.536L609.077,243.707L608.771,243.871L608.556,243.461L608.353,243.066L608.036,242.461L607.81,242.004L607.403,241.742L607.097,241.539L606.781,241.208L606.509,240.862L606.261,240.538L605.955,240.252L605.661,240.342L605.322,240.523L605.005,240.689L604.666,240.877L604.496,240.96L604.1,240.93L603.761,240.9L603.15,240.847L602.63,240.802L602.098,240.757L601.363,240.697L600.617,240.629L600.119,240.712L599.486,240.817L598.819,240.93L598.264,241.028L597.575,241.141L597.054,241.231L596.794,241.216L596.466,240.847L595.957,240.259L595.641,239.897L595.335,239.549L594.894,239.034L594.532,238.647L594.182,238.275L593.989,237.925L593.888,237.483L593.707,237.285L593.299,237.017L592.87,236.727L592.429,236.436L591.999,236.145L591.569,235.853L591.128,235.561L590.698,235.269L590.268,234.977L589.827,234.692L589.398,234.399L588.968,234.105L588.527,233.811L588.097,233.517L587.656,233.223L587.226,232.928L586.796,232.632L586.355,232.337L586.005,232.127L585.665,232.181L585.168,232.329L584.647,232.492L584.138,232.64L583.211,232.92L582.612,233.098L582.148,233.254L581.65,233.416L581.006,233.625L580.463,233.796L579.818,234.005L579.264,234.19L578.789,234.344L578.291,234.499L577.895,234.63L577.895,235.646L577.895,236.658L577.895,237.666L577.895,238.678L577.895,239.678L577.895,240.674L577.895,241.666L577.895,242.655L577.895,243.648L577.895,244.629L577.895,245.607L577.895,246.581L577.907,247.559L577.907,248.526L577.907,249.49L577.907,250.45L577.771,250.443L577.466,250.501L576.968,250.632L576.55,250.704L576.357,250.661L576.199,250.559L576.052,250.349L575.837,250.094L575.611,249.883L575.339,249.453L575.147,249.125L574.683,248.402L574.616,248.175L574.525,247.941L574.378,247.75L573.824,247.273L573.179,246.839L572.546,246.419L572.365,246.316L572.071,246.183L571.709,246.176L571.46,246.205L570.702,246.345L570.126,246.507L569.334,246.728L568.723,246.979L568.587,247.052L568.146,247.346L567.592,247.838L566.959,248.526L566.88,248.087L566.846,247.398L566.857,247.177L567.027,246.596L567.208,246.198L567.355,245.784L567.411,245.244L567.287,244.369L567.14,244.176L566.959,244.109L566.767,244.094L566.427,244.131L566.269,244.198L565.986,243.901L565.647,243.856L565.466,243.938L565.285,243.983L565.093,243.901L564.923,243.722L564.81,243.536L564.731,243.32L564.471,242.894L564.199,242.663L563.883,242.61L563.362,242.618L563.193,242.595L563.181,242.349L563.249,241.809L563.249,241.524L563.215,241.261L563.125,241.043L563.012,240.855L562.706,240.538L562.469,240.101L562.073,239.193L561.734,238.168L561.587,238.009L561.281,237.849L560.603,237.719L560.162,237.582L559.992,237.452L559.913,237.231L559.924,236.987L559.958,236.696L560.06,236.459L560.41,236.267L561.168,236.229L561.824,236.252L562.424,236.681L562.616,236.78L562.819,236.811L563.238,236.673L563.453,236.635L563.973,236.681L563.815,236.474L563.622,236.367L563.419,236.375L563.238,236.29L562.955,235.892L562.446,235.438L562.333,235.254L562.299,234.954L562.39,234.692L562.752,234.429L563.046,234.066L563.193,233.579L563.317,233.362L563.577,233.013L563.962,233.075L564.572,232.827L565.556,232.873L566.744,232.803L567.072,232.827L567.83,233.075L568.271,233.184L568.791,233.238L569.176,233.129L568.814,232.788L568.033,232.391L567.841,232.049L568.192,231.12L568.678,230.266L568.972,229.252L568.893,228.241L568.746,227.964L568.791,227.632L568.961,227.354L569.085,227.076L568.983,226.742L568.768,226.224L568.655,226.048L568.282,225.769L567.536,225.753L566.925,225.601L566.733,225.729L566.619,225.921L566.472,226.04L565.997,226.296L565.839,226.344L565.681,226.296L565.443,226.008L565.24,226.04L564.606,225.865L564.312,225.473L564.199,225.417L563.181,225.113L562.819,225.049L562.016,225.369L561.428,225.785L561.259,225.841L560.953,226.096L560.784,226.144L560.603,226.096L560.444,226.112L560.082,226.503L559.438,226.957L559.121,227.235L558.77,227.417L558.375,227.528L557.967,227.544L557.82,227.647L557.357,227.679L557.074,227.766L557.063,227.917L557.119,228.257L556.882,228.139L556.633,228.376L556.712,228.597L556.565,228.542L555.853,228.115L555.276,227.814L554.755,227.544L554.676,227.497L554.541,227.37L554.439,227.163L554.416,226.941L554.473,226.782L554.597,226.678L554.744,226.638L554.869,226.67L555.016,226.766L555.276,226.893L555.615,226.909L555.83,226.821L555.853,226.598L555.457,225.769L555.083,225.097L554.733,224.351L554.575,224.077L554.133,223.449L553.704,222.827L553.364,222.268L553.183,222.098L552.641,222.025L551.589,221.895L551.215,221.83L550.921,221.993L550.616,222.122L550.333,221.879L550.107,221.489L549.994,221.155L550.051,220.813L550.073,220.307L549.904,219.816L549.711,219.571L549.236,219.382L548.637,218.963L548.467,218.198L548.761,217.099L549.236,216.311L549.576,215.987L549.745,215.696L549.802,215.446L549.757,215.204L549.553,214.953L549.236,214.711L549.078,214.401L549.146,213.747L549.349,212.805L549.677,212.044L550.107,211.63L550.48,211.324L550.627,211.044L550.639,210.645L550.627,210.261L550.729,209.988L550.876,209.766L551.046,209.57L551.283,209.356L551.577,209.296L551.917,209.476L552.369,209.946L553.036,210.874L553.41,211.477L553.545,211.664L553.896,212.019L554.201,212.163L554.722,211.943L555.23,211.68L555.389,211.511L555.491,211.265L555.411,210.84L555.31,210.559L555.197,210.21L555.038,209.596L554.936,208.628L554.801,208.319L554.902,208.284L555.151,208.344L555.378,208.37L555.717,208.155L556.169,207.751L556.995,207.129L557.176,206.714L557.311,206.255L557.549,205.969L558.081,205.882L558.567,205.734L558.906,205.404L559.449,205.117L559.901,204.942L560.094,204.776L560.241,204.541L560.75,203.85L561.146,203.429L561.496,202.998L561.621,202.716L561.892,202.769L562.322,202.963L562.774,203.139L563.113,203.402L563.181,203.674L563.215,203.893L563.351,204.007L563.509,204.025L563.758,203.972L564.177,203.963L564.697,203.604L565.432,203.007L566.099,202.822L566.45,202.963L566.733,203.402L566.97,203.823L567.196,203.972L567.343,203.981L567.4,203.981L567.694,203.893L567.717,203.893L567.988,203.911L568.248,204.051L568.667,204.06L569.266,203.955L569.323,203.911L569.605,203.972L569.956,204.156L570.227,204.383L570.714,205.125L570.985,205.317L571.551,205.587L571.822,205.813L572.127,206.186L572.286,206.411L572.625,206.818L573.01,207.483L573.089,208.009L573.168,208.456L573.315,208.671L573.439,208.696L573.564,208.619L573.688,208.422L573.733,208.078L573.699,207.483L573.598,206.991L573.462,206.836L573.405,206.662L573.496,206.437L573.711,206.333L573.971,206.403L574.412,206.68L574.876,207.043L575.441,207.664L575.961,208.052L576.538,208.37L576.991,208.465L577.341,208.37L577.748,208.112L578.133,207.819L578.303,207.501L578.427,207.164L578.992,206.706L579.513,206.29L579.75,206.368L579.92,206.489L580.451,206.229L580.644,206.16L581.153,206.064L581.673,206.212L582.091,206.654L582.51,206.948L582.872,206.913L583.166,206.766L583.369,206.489L583.516,206.16L583.72,205.943L583.754,205.934L584.399,206.047L584.806,206.03L584.851,205.978L585.383,206.073L585.982,206.533L586.344,207.043L586.819,207.699L587.034,207.914L587.35,208L587.599,208.043L587.939,208.138L588.821,208.276L588.956,208.353L589.047,208.465L588.968,208.816L589.047,208.911L589.759,208.653L589.952,208.465L590.189,207.931L590.404,207.388L590.551,207.19L590.721,207.138L590.89,207.216L591.128,207.535L591.445,207.863L591.874,207.983L592.135,208.035L592.542,208.061L593.503,207.906L594.396,207.509L594.905,207.086L595.143,206.437L595.29,205.708L595.516,205.239L595.426,204.768L594.973,204.313L594.826,204.174L593.729,203.92L593.661,203.736L593.593,203.692L592.519,203.288L591.999,203.112L591.852,202.848L591.761,202.496L591.422,202.187L590.755,201.905L590.63,201.684L590.743,201.463L591.275,201.215L591.874,200.7L592.112,200.593L592.643,200.576L593.141,200.148L593.48,199.908L593.661,199.614L593.616,199.319L593.118,198.414L592.971,197.866L593.062,197.515L593.345,197.118L593.503,196.911L593.707,196.531L593.831,196.323L594.329,196.241L594.939,196.205L595.358,196.296L595.946,196.341L596.477,196.413L596.738,196.477L596.941,196.359L597.088,196.151L597.077,195.879L596.873,195.615L596.093,195.27L595.754,194.988L595.494,195.015L595.052,194.933L594.657,194.742L594.306,194.678L594.193,194.413L594.261,194.047L594.396,193.846L594.657,193.736L594.939,193.791L595.245,193.635L595.335,193.553L595.358,193.433L595.313,193.268L595.166,193.131L594.973,193.094L594.736,193.213L594.464,193.287L593.989,193.121L593.616,192.91L593.639,192.726L593.91,192.44L594.035,192.21L594.035,191.896L594.035,191.526L594.136,191.091L594.408,190.794L594.724,190.636L595.561,190.924L596.602,191.184L596.783,191.147L596.828,191.008L596.952,190.887L598.389,190.831L598.672,190.664L598.807,190.534L600.198,190.339L600.357,190.153L600.56,189.985L600.888,189.985L601.262,189.92L601.793,189.715L602.166,189.593L602.234,189.584L602.63,189.631L603.116,189.472L603.218,189.397L603.309,189.276L603.727,189.033L604.553,188.836L604.756,188.958L605.152,189.014L605.65,188.92L606.023,188.771L606.238,188.92L606.521,189.07L606.747,188.949L606.849,188.527L606.996,188.123L607.244,187.935L607.437,187.86L607.618,187.709L607.742,187.54L608.466,187.568L609.122,187.163L609.246,187.351L610.083,187.304L611.135,187.04L611.757,186.917L612.843,186.643L613.34,186.426L614.053,186.283L614.709,186.189L615.139,185.8L615.489,185.743L615.908,185.714L616.157,185.619L616.326,185.477L616.439,185.201L616.383,184.858L616.315,184.61L616.62,184.466L617.05,184.419L617.322,184.361L617.91,183.797L618.317,183.519L618.747,183.346L619.595,183.442L620.364,183.528L621.144,183.797L621.551,184.141L621.902,184.4L622.23,184.524L622.524,184.6L622.875,184.486L623.123,184.323L623.271,184.103L623.485,183.94L624.277,183.816L624.435,184.055L624.82,184.791L625.069,185.762L625.499,187.05L625.68,187.672L625.6,188.001L625.6,188.452L625.578,188.949L625.261,189.5L625.385,189.761L626.155,190.05L627.229,189.948L627.885,189.715L628.258,189.799L628.45,189.659L628.575,189.248L628.824,189.154L629.084,189.444L629.276,189.929L629.457,190.246L629.446,190.618L629.514,191.091L629.638,191.212L629.909,191.026L630.079,190.924L630.124,190.776L630.045,190.599L630.011,190.413L630.068,190.246L630.192,190.181L630.565,190.237L631.108,190.33L631.753,191.008L632.104,191.128L632.251,191.137L632.579,191.1L632.974,190.906L633.234,190.664L633.325,190.543L633.472,190.562L633.619,190.674L633.63,190.924L633.517,191.276L633.121,191.6L632.635,191.905L632.341,192.459L632.273,193.039L632.409,193.333L632.522,193.525L632.545,193.8L632.658,193.837L632.861,193.718L633.404,193.158L633.676,193.011L634.083,192.919L634.739,192.965L635.18,193.149L635.395,193.406L635.632,193.626L635.791,193.534L635.87,193.287L635.87,193.011L635.938,192.781L636.661,192.21L637.148,191.831L637.306,191.785L637.634,191.868L637.826,191.822L638.358,191.471L638.844,191.063L638.901,190.785L638.912,190.534L639.036,190.423L639.726,190.33L639.839,190.283L640.428,190.004L641.242,189.519L641.638,189.229L642.362,189.098L642.497,189.014L642.735,188.817L643.187,188.555L643.436,188.527L643.289,189.173L643.018,189.92L642.859,190.125L642.135,190.088L642.135,190.292L642.248,190.608L642.328,190.776L642.418,190.933L642.61,191.212L643.379,191.85L644.363,192.652L645.427,193.562L646.162,194.194L646.456,194.523L646.648,194.769L647.191,195.688L647.711,196.549L648.582,198.064L649.351,199.515L650.211,201.099L650.697,202.011L651.703,203.911L651.975,204.497L652.484,205.587L652.936,206.611L653.332,207.509L653.581,207.595L653.604,207.354L653.637,207.19L653.773,207.095L654.067,206.827L654.226,206.766L654.452,206.792L654.701,206.654L654.791,206.403L654.735,205.926L654.701,205.708L654.78,205.474L654.915,205.378L655.096,205.308L655.277,205.265L655.413,205.003L655.685,204.925L655.922,204.968L656.126,204.977L656.307,205.178L656.408,205.439L656.601,205.465L656.917,205.43L656.951,205.656L656.861,206.03L656.759,206.316L656.736,206.55L656.906,206.654L657.517,206.559L657.732,206.611L657.799,206.844L657.89,207.034L657.935,207.268L657.867,207.526L657.98,207.682L658.501,207.69L658.874,207.561L659.451,207.552L659.96,207.828L660.322,207.785L660.683,207.673L661.204,207.742L661.577,207.526L661.837,207.259L661.916,207.043L662.041,206.922L662.538,206.922L662.855,206.905L663.092,206.585L663.296,206.446L663.658,206.42L663.918,206.42L664.619,206.714L665.049,206.957L665.501,207.294L665.762,207.509L665.943,208L666.248,208.353L666.485,208.774L666.553,209.185L666.746,209.92L666.949,210.159L667.198,210.159L667.503,210.261L667.843,210.338L668.578,210.883L668.838,210.9L669.041,211.027L669.075,211.282L668.996,211.57L669.087,211.85L669.324,212.197L669.505,212.543L669.743,212.965L669.811,213.2L669.991,213.276L670.252,213.158L670.647,213.251L671.846,213.487L672.016,213.52L672.14,213.764L672.31,213.747L672.514,213.73L672.785,213.764L672.977,213.537L673.136,213.335L673.531,213.091L673.859,212.754L674.142,212.459L674.346,212.416L674.515,212.551L674.515,212.813L674.312,212.998L674.154,213.226L674.187,213.453L674.47,213.478L674.776,213.823L675.217,214.619L675.364,214.786L675.59,214.945L675.827,215.012L676.099,215.129L676.291,215.462L676.382,215.754L676.087,215.662L675.511,215.637L675.171,215.696L675.002,215.729L674.764,215.929L674.583,216.128L674.515,216.461L674.606,216.834L674.481,217.612L674.312,217.909L673.95,218.412L673.735,218.528L673.396,218.618L673.056,218.766L672.4,218.914L671.688,218.988L671.439,219.095L671.258,219.44L671.122,219.726L671.043,219.947L670.851,220.666L670.727,221.302L670.84,222.098L670.93,222.973L670.919,223.271L671.1,223.723L671.179,223.997L671.145,224.383L670.896,224.688L670.749,225.097L670.602,225.265L670.195,225.345L669.811,225.393L669.426,225.737L669.121,225.977L668.634,226.28L668.408,226.336L668.284,226.184L668.193,225.841L668.035,225.689L667.797,225.673L667.605,225.673L667.006,225.577L666.61,225.585L666.327,225.657L665.988,225.697L665.411,225.569L665.038,225.465L664.789,225.361L664.19,225.057L663.398,224.696L663.081,224.592L662.889,224.704L662.855,224.904L662.81,225.401L662.719,225.713L662.165,227.282L661.826,228.368L661.396,229.402L661.26,230.093L661,230.971L660.751,231.604L660.65,231.947L660.638,232.088L660.683,232.282L661.079,232.5L661.486,232.632L661.577,232.71L661.622,232.935L661.611,233.3L661.532,233.641L661.407,233.912L661.294,234.043L661.158,234.059L660.898,233.881L660.672,233.687L660.491,233.633L660.039,233.734L659.62,233.889L659.485,233.889L659.236,233.796L658.998,233.602L658.897,233.223L658.682,233.052L658.41,233.223L657.562,233.509L656.635,233.85L656.058,234.028L655.82,234.005L655.368,234.043L654.972,234.136L654.678,234.267L654.09,234.453L653.558,234.576L653.219,234.854L652.97,235.123L652.981,235.223L653.162,235.377L653.366,235.508L653.773,235.477L654.169,235.454L654.508,235.623L654.802,235.73L654.882,235.869L654.802,236.007L654.633,236.037L654.565,236.129L654.599,236.26L654.486,236.589L654.429,237.086L654.486,237.582L654.52,238.031L654.497,238.26L654.486,238.586L654.61,238.807L654.723,239.224L654.927,239.481L655.232,240.38L655.413,240.907L655.583,241.501L655.458,241.817L655.47,242.004L655.662,242.161L655.752,242.461L655.843,242.648L655.82,242.827L655.73,242.902L655.311,242.79L654.961,242.969L654.599,243.156L654.554,243.253L654.542,243.357L654.576,243.454L654.791,243.618L655.085,243.722L655.062,243.886L654.701,243.96L654.158,244.213L654.011,244.481L653.886,244.77L653.875,244.948L653.932,245.4L654.022,245.91L654.169,246.441L654.18,246.603L654.101,246.721L654.033,246.795L653.592,246.316L653.129,245.851L652.755,245.74L652.111,245.666L651.771,245.659L651.579,245.548L651.387,245.281L651.161,245.03L650.867,244.77L650.753,244.377L650.629,244.302L650.414,244.354L650.064,244.34L649.871,244.302L649.577,244.236L649.102,244.072L648.74,243.923L648.265,243.893L648.005,243.923L647.157,243.953L646.467,243.789L645.902,243.759L645.551,243.767L645.393,243.752L645.11,243.752L644.691,243.715L644.126,243.469L643.911,243.454L643.775,243.461L642.837,243.648L642.407,243.692L641.491,243.67L640.597,243.648L640.303,243.611L640.145,243.625L639.806,244.065L639.658,244.139L638.81,244.042L637.815,243.752L637.091,243.432L636.48,243.096L635.666,242.566L635.18,242.304L635.112,242.461L634.976,242.506L634.795,242.528L634.365,242.498L634.162,242.767L633.642,242.962L633.302,243.133L633.133,243.327L632.793,244.614L632.703,245.081L632.929,245.866L632.669,245.821L632.375,245.622L632.273,245.459L631.979,245.363L630.927,245.222L630.724,245.037L630.599,244.889L630.328,244.792L629.943,244.718L629.106,244.377L628.744,244.369L627.659,244.102L627.489,244.109L627.41,244.117L626.98,244.288L626.709,244.34L626.426,244.273L625.906,244.481L625.623,244.763L625.397,245.111L625.171,245.326L625.103,245.651L624.944,245.821L624.763,246.161L624.763,246.36Z" fill="#7bb3f020" stroke="#7bb3f0" stroke-width="0.8"/><path id="country-HU" d="M471.572,218.996L471.877,218.955L471.888,218.963L471.956,218.988L472.001,219.21L472.013,219.218L472.092,219.366L472.16,219.562L472.261,219.702L472.488,219.759L472.793,219.939L472.985,220.274L473.279,220.422L473.302,220.422L473.358,220.405L473.573,220.397L473.619,220.462L473.788,220.626L473.856,220.772L473.822,220.919L473.845,221.098L473.913,221.155L473.834,221.269L473.291,221.847L473.076,222.001L472.929,222.033L472.703,221.976L472.476,222.017L472.261,222.147L472.069,222.179L471.933,222.333L471.741,222.641L471.515,222.908L471.277,223.078L471.153,223.223L471.142,223.731L471.017,223.876L470.848,224.021L470.746,224.15L470.486,224.92L470.282,225.169L470.101,225.353L470.067,225.529L470.067,225.729L469.852,226.12L469.57,226.527L469.513,226.694L469.581,226.917L469.31,227.179L469.151,227.298L469.027,227.362L468.948,227.52L468.812,227.917L468.846,228.091L468.846,228.249L468.62,228.344L468.552,228.526L468.495,228.739L468.405,228.842L468.145,229.023L467.511,228.944L467.262,229.008L467.195,229.134L467.183,229.244L467.104,229.339L466.957,229.464L466.799,229.52L466.471,229.37L465.758,229.52L465.634,229.63L465.532,229.551L465.385,229.48L464.673,229.394L464.39,229.464L464.005,229.433L463.666,229.354L463.406,229.417L463.168,229.724L463.055,229.834L462.965,229.897L462.772,229.991L462.603,230.109L462.388,230.195L462.196,230.18L462.003,230.046L461.947,230.078L461.879,230.203L461.789,230.305L461.506,230.431L461.438,230.431L461.427,230.431L461.212,230.525L460.861,230.58L460.68,230.541L460.363,230.963L460.273,231.042L459.968,231.175L459.719,231.237L459.504,231.182L459.425,231.182L458.475,231.159L457.988,231.065L457.672,230.901L457.457,230.721L457.355,230.509L457.118,230.392L456.733,230.345L456.428,230.141L456.213,229.779L455.919,229.488L455.557,229.275L455.263,228.976L455.048,228.581L454.663,228.233L454.098,227.917L453.928,227.853L453.894,227.75L453.623,227.362L453.51,227.219L453.521,227.028L453.464,226.917L453.363,226.837L453.306,226.559L453.284,226.351L453.204,226.216L452.605,226.184L453.103,225.689L453.351,225.545L453.645,225.569L453.736,225.529L453.759,225.457L453.804,225.289L453.838,225.137L453.86,224.993L453.826,224.912L453.691,224.888L453.623,224.527L453.691,224.391L453.759,224.294L453.679,223.86L453.702,223.715L453.928,223.691L454.109,223.594L454.267,223.489L454.313,223.352L454.437,223.078L454.324,222.738L453.668,222.52L453.634,222.43L453.781,222.333L453.951,222.195L454.041,222.09L454.166,222.074L454.347,222.131L454.663,222.374L454.776,222.414L454.901,222.341L455.025,222.325L455.365,222.333L455.659,222.276L455.591,222.017L455.591,221.822L455.545,221.668L455.579,221.505L455.693,221.375L455.726,221.082L455.919,220.878L455.998,220.854L456.326,220.887L456.394,220.936L456.45,220.952L456.959,221.432L457.446,221.798L457.841,221.985L458.429,222.001L459.052,222.017L460.092,221.952L460.872,221.903L460.918,221.814L461.042,221.595L460.94,221.408L460.952,221.196L461.076,220.903L461.461,220.666L462.569,220.568L463.202,220.389L463.293,220.144L463.508,219.906L463.7,219.857L463.96,219.972L464.277,220.176L464.559,220.291L464.718,220.217L465.283,219.866L465.928,219.513L466.369,218.569L466.414,218.421L466.901,218.313L467.602,218.33L467.964,218.453L468.224,218.519L468.631,218.503L469.219,218.297L469.434,218.305L469.604,218.445L469.785,218.569L469.909,218.725L469.999,218.939L470.056,219.013L470.135,219.128L470.282,219.275L470.429,219.316L471.504,219.054Z" fill="#7bb3f020" stroke="#7bb3f0" stroke-width="0.8"/><path id="country-AZ" d="M542.846,257.356L542.733,257.222L542.688,257.144L542.993,257.08L543.513,256.888L543.661,256.981L543.808,257.172L543.887,257.335L543.898,257.632L543.955,257.682L544.215,257.583L544.316,257.703L544.52,257.852L544.848,257.993L545.334,257.767L545.572,257.71L545.775,257.717L545.877,257.788L545.922,258.021L545.877,258.311L545.821,258.466L545.922,258.579L546.318,258.861L546.488,259.009L546.409,259.276L546.703,259.93L546.805,260.183L546.918,260.491L546.307,260.372L545.221,260.112L544.927,259.972L544.644,259.614L544.475,259.438L544.215,259.213L544.011,259.129L543.864,258.967L543.774,258.734L543.638,258.53L543.412,258.283L542.903,257.448ZM555.57,262.272L555.479,262.265L554.835,262.418L554.699,262.369L554.156,261.666L554.043,261.589L553.805,261.561L553.658,261.442L553.545,261.254L553.489,261.114L552.912,260.729L552.833,260.589L552.821,260.47L552.901,260.358L553.002,260.26L553.274,260.169L553.602,260.084L553.704,260.028L553.76,259.923L553.76,259.762L553.704,259.6L553.24,259.305L553.183,259.178L553.172,259.023L553.195,258.861L553.263,258.734L553.647,258.558L553.851,258.382L553.726,258.184L553.319,257.724L552.833,257.222L552.505,257.215L552.132,257.363L551.532,257.795L551.193,257.979L550.763,258.283L550.288,258.621L549.904,258.974L549.666,259.269L549.236,259.396L549.021,259.649L548.298,260.386L548.094,260.379L548.083,260.007L548.094,259.719L548.049,259.551L547.823,259.319L547.811,259.22L547.879,259.164L548.06,259.199L548.286,259.185L548.399,259.093L548.151,258.791L547.936,258.586L547.743,258.452L547.709,258.367L547.709,258.311L547.743,258.24L548.06,258.071L548.094,257.922L548.071,257.746L547.574,257.491L547.189,257.59L546.85,257.3L546.635,257.08L546.364,256.846L546.126,256.711L545.9,256.413L545.493,256.107L545.233,256.021L545.244,255.972L545.289,255.915L545.391,255.872L546.115,255.879L546.194,255.829L546.239,255.694L546.341,255.501L546.454,255.209L546.443,254.966L545.73,254.573L545.21,254.215L544.848,253.735L544.599,253.297L544.611,253.153L544.678,253.016L545.233,252.613L545.278,252.505L545.267,252.433L545.063,252.224L544.814,252.014L544.735,251.855L544.577,251.776L544.271,251.769L543.751,251.508L543.638,251.479L543.615,251.429L543.638,251.378L544.011,251.27L544.011,251.183L543.898,251.067L543.683,250.98L543.491,250.77L543.423,250.581L544.102,250.029L544.294,249.92L544.746,250.021L545.662,250.385L545.606,250.588L545.696,250.704L545.911,250.864L546.307,251.016L546.658,251.103L546.827,251.031L547.099,250.973L547.438,251.154L547.755,251.385L547.913,251.479L547.992,251.501L548.241,251.429L548.524,251.132L548.637,250.77L548.671,250.603L548.501,250.363L548.151,250.101L547.766,249.876L547.517,249.672L547.359,249.279L547.2,249.235L547.155,249.184L547.133,249.045L547.133,248.855L547.189,248.709L547.348,248.651L547.506,248.629L547.653,248.49L547.834,248.212L547.913,248.065L548.252,248.153L548.298,248.395L548.354,248.446L548.49,248.417L548.727,248.314L548.908,248.395L549.146,248.687L549.485,248.994L549.666,249.198L549.734,249.337L549.904,249.475L550.152,249.643L550.345,249.89L550.514,250.479L550.695,250.617L551.34,250.842L551.555,250.886L552.188,250.965L552.403,250.907L552.731,250.407L553.014,249.883L553.285,249.774L553.783,249.519L554.066,249.279L554.19,249.023L554.473,248.534L554.642,248.255L554.925,248.504L555.434,249.162L556.147,250.232L556.316,250.537L556.429,250.886L556.531,251.313L556.689,251.689L557.413,252.627L557.73,252.973L558.239,253.426L558.42,253.527L558.657,253.548L559.098,253.555L559.494,253.728L559.698,253.849L559.901,254.029L560.082,254.229L560.275,254.78L559.573,254.602L558.872,254.63L558.465,254.745L558.081,254.902L557.719,255.13L557.481,255.573L557.289,256.583L557.006,257.533L557.006,257.965L557.142,258.382L557.119,258.586L556.995,258.671L556.825,258.847L556.61,259.705L556.497,259.881L556.361,259.986L556.328,259.881L556.328,259.656L556.022,259.459L555.864,259.684L555.751,260.155L555.525,260.652L555.513,260.743ZM545.153,253.39L545.187,253.253L545.097,253.189L545.006,253.189L544.916,253.253L544.916,253.426L545.029,253.462ZM543.491,251.682L543.423,251.733L543.321,251.682L543.287,251.581L543.299,251.465L543.4,251.443L543.48,251.472L543.502,251.574Z" fill="#7bb3f020" stroke="#7bb3f0" stroke-width="0.8"/></g>
<g id="arcs"><path id="arc-TR-IST-UZ-TAS" data-from="TR-IST" data-to="UZ-TAS" data-strength="2" d="M 493.08258567714375,251.76274519728125 Q 556.3255161476618,210.67768856945685 619.5684466181799,250.54732021232016" fill="none" stroke="#7bb3f0" stroke-width="1.6" opacity="0.8"/><path id="arc-TR-IST-KZ-ALM" data-from="TR-IST" data-to="KZ-ALM" data-strength="1" d="M 493.08258567714375,251.76274519728125 Q 568.3340969863762,198.78189825654442 643.5856082956085,242.31267700450815" fill="none" stroke="#7bb3f0" stroke-width="1.1" opacity="0.8"/><path id="arc-TR-IST-AZ-BAK" data-from="TR-IST" data-to="AZ-BAK" data-strength="1" d="M 493.08258567714375,251.76274519728125 Q 525.8944789086643,223.00379721362282 558.7063721401848,254.2448492299644" fill="none" stroke="#7bb3f0" stroke-width="1.1" opacity="0.8"/><path id="arc-TR-IST-HU-BUD" data-from="TR-IST" data-to="HU-BUD" data-strength="1" d="M 493.08258567714375,251.76274519728125 Q 477.47169762219073,207.5084672178062 461.86080956723765,223.25418923833118" fill="none" stroke="#7bb3f0" stroke-width="1.1" opacity="0.8"/><path id="arc-UZ-TAS-KZ-ALM" data-from="UZ-TAS" data-to="KZ-ALM" data-strength="1" d="M 619.5684466181799,250.54732021232016 Q 631.5770274568943,216.42999860841417 643.5856082956085,242.31267700450815" fill="none" stroke="#7bb3f0" stroke-width="1.1" opacity="0.8"/><path id="arc-KZ-ALM-AZ-BAK" data-from="KZ-ALM" data-to="AZ-BAK" data-strength="1" d="M 643.5856082956085,242.31267700450815 Q 601.1459902178967,218.27876311723628 558.7063721401848,254.2448492299644" fill="none" stroke="#7bb3f0" stroke-width="1.1" opacity="0.8"/></g>
<g id="nodes"><g id="node-TR-IST" data-node="TR-IST"><circle id="core" cx="493.08258567714375" cy="251.76274519728125" r="3" fill="#d9f99d"/><circle id="glow" cx="493.08258567714375" cy="251.76274519728125" r="10" fill="#d9f99d55"/></g><g id="node-UZ-TAS" data-node="UZ-TAS"><circle id="core" cx="619.5684466181799" cy="250.54732021232016" r="3" fill="#d9f99d"/><circle id="glow" cx="619.5684466181799" cy="250.54732021232016" r="10" fill="#d9f99d55"/></g><g id="node-KZ-ALM" data-node="KZ-ALM"><circle id="core" cx="643.5856082956085" cy="242.31267700450815" r="3" fill="#d9f99d"/><circle id="glow" cx="643.5856082956085" cy="242.31267700450815" r="10" fill="#d9f99d55"/></g><g id="node-AZ-BAK" data-node="AZ-BAK"><circle id="core" cx="558.7063721401848" cy="254.2448492299644" r="3" fill="#d9f99d"/><circle id="glow" cx="558.7063721401848" cy="254.2448492299644" r="10" fill="#d9f99d55"/></g><g id="node-HU-BUD" data-node="HU-BUD"><circle id="core" cx="461.86080956723765" cy="223.25418923833118" r="3" fill="#d9f99d"/><circle id="glow" cx="461.86080956723765" cy="223.25418923833118" r="10" fill="#d9f99d55"/></g></g>
<!-- Pixel positions (for AE placement)
TR-IST:493,252
UZ-TAS:620,251
KZ-ALM:644,242
AZ-BAK:559,254
HU-BUD:462,223
-->
</svg>