<svg width="692" height="151" viewBox="0 0 692 151" fill="none" xmlns="http://www.w3.org/2000/svg">
<g clip-path="url(#clip0_323_5431)">
<path d="M0 70.4667L73.787 0H0V70.4667Z" fill="#006F9E" stroke="#006F9E"/>
<path d="M67.0791 150.9L16.7698 87.1445L0 100.567V150.9H67.0791Z" fill="#006F9E" stroke="#006F9E"/>
<path d="M83.8489 137.478V15L28.5086 70.3667L83.8489 137.478Z" fill="#006F9E" stroke="#006F9E"/>
<path d="M632.067 114.071H612.063L612.069 72.2991C612.373 58.6226 620.694 48.9253 624.681 45.3795C627.529 41.8337 638.687 34.3844 661.622 36.2079C684.558 38.0314 691.43 61.0281 692 72.2985V114.088H670.736V72.4885C670.293 66.7897 665.799 55.3922 651.37 55.3922C636.941 55.3922 632.489 69.1952 632.067 76.0966V114.071Z" fill="#006F9E" stroke="#006F9E"/>
<path d="M157.218 35.9871H138.551L139.255 114.232H158.126V91.4537L178.021 112.385C189.836 119.116 201.541 113.821 205.916 110.333L168.586 72.9849L204.891 40.1515C184.38 29.6448 164.563 49.6792 157.218 61.0097V35.9871Z" fill="#006F9E" stroke="#006F9E"/>
<path d="M222.72 41.7531C234.774 33.9876 263.767 27.21 279.729 60.2902C281.534 64.3778 283.384 71.6578 283.719 81.6789L283.434 114.759H266.046V110.482C254.739 115.52 228.078 120.521 211.888 100.216C191.65 74.835 211.357 49.0736 222.72 41.7531ZM243.152 55.2297C231.765 55.2297 222.534 64.4655 222.534 75.8576C222.535 87.2495 231.765 96.4845 243.152 96.4846C254.538 96.4846 263.769 87.2496 263.769 75.8576C263.769 64.4654 254.538 55.2297 243.152 55.2297Z" fill="#006F9E"/>
<path d="M222.72 41.7531L222.449 41.3328L222.449 41.3328L222.72 41.7531ZM279.729 60.2902L280.186 60.0882L280.183 60.0805L280.179 60.0729L279.729 60.2902ZM283.719 81.6789L284.219 81.6832L284.219 81.6727L284.219 81.6622L283.719 81.6789ZM283.434 114.759V115.259H283.93L283.934 114.763L283.434 114.759ZM266.046 114.759H265.546V115.259H266.046V114.759ZM266.046 110.482H266.546V109.711L265.843 110.025L266.046 110.482ZM211.888 100.216L211.497 100.528L211.497 100.528L211.888 100.216ZM243.152 55.2297L243.152 54.7297L243.152 54.7297L243.152 55.2297ZM222.534 75.8576L222.034 75.8576L222.034 75.8576L222.534 75.8576ZM243.152 96.4846L243.152 96.9846H243.152V96.4846ZM263.769 75.8576L264.269 75.8576V75.8576H263.769ZM222.72 41.7531L222.991 42.1734C228.94 38.3408 239.083 34.7494 249.691 36.1999C260.261 37.6452 271.364 44.1053 279.278 60.5075L279.729 60.2902L280.179 60.0729C272.131 43.3949 260.757 36.7036 249.826 35.2091C238.934 33.7197 228.554 37.3999 222.449 41.3328L222.72 41.7531ZM279.729 60.2902L279.271 60.4922C281.045 64.5075 282.886 71.7213 283.219 81.6956L283.719 81.6789L284.219 81.6622C283.882 71.5942 282.023 64.2481 280.186 60.0882L279.729 60.2902ZM283.719 81.6789L283.219 81.6746L282.934 114.755L283.434 114.759L283.934 114.763L284.219 81.6832L283.719 81.6789ZM283.434 114.759V114.259H266.046V114.759V115.259H283.434V114.759ZM266.046 114.759H266.546V110.482H266.046H265.546V114.759H266.046ZM266.046 110.482L265.843 110.025C260.251 112.516 250.84 115.006 240.831 114.354C230.834 113.702 220.267 109.922 212.279 99.9043L211.888 100.216L211.497 100.528C219.7 110.815 230.558 114.686 240.766 115.351C250.962 116.016 260.534 113.485 266.25 110.938L266.046 110.482ZM211.888 100.216L212.279 99.9043C202.282 87.3666 202.158 74.7681 205.924 64.3823C209.701 53.9639 217.395 45.7785 222.991 42.1734L222.72 41.7531L222.449 41.3328C216.682 45.0483 208.841 53.4037 204.984 64.0414C201.115 74.7118 201.256 87.6844 211.497 100.528L211.888 100.216ZM243.152 55.2297L243.152 54.7297C231.489 54.7297 222.034 64.1896 222.034 75.8576H222.534H223.034C223.034 64.7414 232.041 55.7297 243.152 55.7297L243.152 55.2297ZM222.534 75.8576L222.034 75.8576C222.035 87.5254 231.489 96.9845 243.152 96.9846L243.152 96.4846L243.152 95.9846C232.041 95.9845 223.035 86.9736 223.034 75.8576L222.534 75.8576ZM243.152 96.4846V96.9846C254.815 96.9846 264.269 87.5255 264.269 75.8576L263.769 75.8576L263.269 75.8576C263.269 86.9737 254.262 95.9846 243.152 95.9846V96.4846ZM263.769 75.8576H264.269C264.269 64.1896 254.815 54.7297 243.152 54.7297V55.2297V55.7297C254.262 55.7297 263.269 64.7413 263.269 75.8576H263.769Z" fill="#006F9E"/>
<path d="M369.144 41.7531C381.198 33.9876 410.19 27.21 426.153 60.2902C427.958 64.3778 429.808 71.6578 430.143 81.6789L429.858 114.759H412.47V110.482C401.163 115.52 374.502 120.521 358.312 100.216C338.074 74.835 357.781 49.0736 369.144 41.7531ZM389.576 55.2297C378.189 55.2297 368.958 64.4655 368.958 75.8576C368.959 87.2495 378.189 96.4845 389.576 96.4846C400.962 96.4846 410.193 87.2496 410.193 75.8576C410.193 64.4654 400.962 55.2297 389.576 55.2297Z" fill="#006F9E"/>
<path d="M369.144 41.7531L368.873 41.3328L368.873 41.3328L369.144 41.7531ZM426.153 60.2902L426.61 60.0882L426.607 60.0805L426.603 60.0729L426.153 60.2902ZM430.143 81.6789L430.643 81.6832L430.643 81.6727L430.643 81.6622L430.143 81.6789ZM429.858 114.759V115.259H430.354L430.358 114.763L429.858 114.759ZM412.47 114.759H411.97V115.259H412.47V114.759ZM412.47 110.482H412.97V109.711L412.267 110.025L412.47 110.482ZM358.312 100.216L357.921 100.528L357.921 100.528L358.312 100.216ZM389.576 55.2297L389.576 54.7297L389.576 54.7297L389.576 55.2297ZM368.958 75.8576L368.458 75.8576L368.458 75.8576L368.958 75.8576ZM389.576 96.4846L389.576 96.9846H389.576V96.4846ZM410.193 75.8576L410.693 75.8576V75.8576H410.193ZM369.144 41.7531L369.415 42.1734C375.364 38.3408 385.507 34.7494 396.115 36.1999C406.685 37.6452 417.788 44.1053 425.702 60.5075L426.153 60.2902L426.603 60.0729C418.555 43.3949 407.181 36.7036 396.25 35.2091C385.358 33.7197 374.978 37.3999 368.873 41.3328L369.144 41.7531ZM426.153 60.2902L425.695 60.4922C427.469 64.5075 429.31 71.7213 429.643 81.6956L430.143 81.6789L430.643 81.6622C430.306 71.5942 428.447 64.2481 426.61 60.0882L426.153 60.2902ZM430.143 81.6789L429.643 81.6746L429.358 114.755L429.858 114.759L430.358 114.763L430.643 81.6832L430.143 81.6789ZM429.858 114.759V114.259H412.47V114.759V115.259H429.858V114.759ZM412.47 114.759H412.97V110.482H412.47H411.97V114.759H412.47ZM412.47 110.482L412.267 110.025C406.675 112.516 397.264 115.006 387.255 114.354C377.258 113.702 366.691 109.922 358.703 99.9043L358.312 100.216L357.921 100.528C366.124 110.815 376.982 114.686 387.19 115.351C397.385 116.016 406.958 113.485 412.674 110.938L412.47 110.482ZM358.312 100.216L358.703 99.9043C348.706 87.3666 348.582 74.7681 352.348 64.3823C356.125 53.9639 363.819 45.7785 369.415 42.1734L369.144 41.7531L368.873 41.3328C363.106 45.0483 355.265 53.4037 351.408 64.0414C347.539 74.7118 347.68 87.6844 357.921 100.528L358.312 100.216ZM389.576 55.2297L389.576 54.7297C377.913 54.7297 368.458 64.1896 368.458 75.8576H368.958H369.458C369.458 64.7414 378.465 55.7297 389.576 55.7297L389.576 55.2297ZM368.958 75.8576L368.458 75.8576C368.459 87.5254 377.913 96.9845 389.576 96.9846L389.576 96.4846L389.576 95.9846C378.465 95.9845 369.459 86.9736 369.458 75.8576L368.958 75.8576ZM389.576 96.4846V96.9846C401.239 96.9846 410.693 87.5255 410.693 75.8576L410.193 75.8576L409.693 75.8576C409.693 86.9737 400.686 95.9846 389.576 95.9846V96.4846ZM410.193 75.8576H410.693C410.693 64.1896 401.239 54.7297 389.576 54.7297V55.2297V55.7297C400.686 55.7297 409.693 64.7413 409.693 75.8576H410.193Z" fill="#006F9E"/>
<path d="M457.341 43.727L475.012 80.6692L492.817 42.169C493.53 40.6269 494.565 39.2207 496.012 38.3308C504.078 33.3717 511.412 37.1787 514.253 39.9463L495.363 82.2541C490.895 93.0241 480.52 114.564 474.768 114.564C469.016 114.564 463.109 104.485 460.875 99.4454L434.918 39.8247C446.324 31.5338 454.619 38.9717 457.341 43.727Z" fill="#006F9E" stroke="#006F9E"/>
<path d="M536.486 41.7531C548.54 33.9876 577.532 27.21 593.495 60.2902C595.3 64.3778 597.15 71.6578 597.485 81.6789L597.2 114.759H579.812V110.482C568.505 115.52 541.844 120.521 525.654 100.216C505.416 74.835 525.123 49.0736 536.486 41.7531ZM556.918 55.2297C545.531 55.2297 536.3 64.4655 536.3 75.8576C536.301 87.2495 545.531 96.4845 556.918 96.4846C568.304 96.4846 577.535 87.2496 577.535 75.8576C577.535 64.4654 568.304 55.2297 556.918 55.2297Z" fill="#006F9E"/>
<path d="M536.486 41.7531L536.215 41.3328L536.215 41.3328L536.486 41.7531ZM593.495 60.2902L593.952 60.0882L593.949 60.0805L593.945 60.0729L593.495 60.2902ZM597.485 81.6789L597.985 81.6832L597.985 81.6727L597.985 81.6622L597.485 81.6789ZM597.2 114.759V115.259H597.696L597.7 114.763L597.2 114.759ZM579.812 114.759H579.312V115.259H579.812V114.759ZM579.812 110.482H580.312V109.711L579.609 110.025L579.812 110.482ZM525.654 100.216L525.263 100.528L525.263 100.528L525.654 100.216ZM556.918 55.2297L556.918 54.7297L556.918 54.7297L556.918 55.2297ZM536.3 75.8576L535.8 75.8576L535.8 75.8576L536.3 75.8576ZM556.918 96.4846L556.918 96.9846H556.918V96.4846ZM577.535 75.8576L578.035 75.8576V75.8576H577.535ZM536.486 41.7531L536.757 42.1734C542.706 38.3408 552.849 34.7494 563.457 36.1999C574.027 37.6452 585.13 44.1053 593.044 60.5075L593.495 60.2902L593.945 60.0729C585.897 43.3949 574.523 36.7036 563.592 35.2091C552.7 33.7197 542.32 37.3999 536.215 41.3328L536.486 41.7531ZM593.495 60.2902L593.037 60.4922C594.811 64.5075 596.651 71.7213 596.985 81.6956L597.485 81.6789L597.985 81.6622C597.648 71.5942 595.789 64.2481 593.952 60.0882L593.495 60.2902ZM597.485 81.6789L596.985 81.6746L596.7 114.755L597.2 114.759L597.7 114.763L597.985 81.6832L597.485 81.6789ZM597.2 114.759V114.259H579.812V114.759V115.259H597.2V114.759ZM579.812 114.759H580.312V110.482H579.812H579.312V114.759H579.812ZM579.812 110.482L579.609 110.025C574.017 112.516 564.606 115.006 554.597 114.354C544.6 113.702 534.033 109.922 526.045 99.9043L525.654 100.216L525.263 100.528C533.466 110.815 544.324 114.686 554.532 115.351C564.727 116.016 574.3 113.485 580.016 110.938L579.812 110.482ZM525.654 100.216L526.045 99.9043C516.048 87.3666 515.924 74.7681 519.69 64.3823C523.467 53.9639 531.161 45.7785 536.757 42.1734L536.486 41.7531L536.215 41.3328C530.448 45.0483 522.607 53.4037 518.75 64.0414C514.881 74.7118 515.022 87.6844 525.263 100.528L525.654 100.216ZM556.918 55.2297L556.918 54.7297C545.255 54.7297 535.8 64.1896 535.8 75.8576H536.3H536.8C536.8 64.7414 545.807 55.7297 556.918 55.7297L556.918 55.2297ZM536.3 75.8576L535.8 75.8576C535.801 87.5254 545.255 96.9845 556.918 96.9846L556.918 96.4846L556.918 95.9846C545.807 95.9845 536.801 86.9736 536.8 75.8576L536.3 75.8576ZM556.918 96.4846V96.9846C568.581 96.9846 578.035 87.5255 578.035 75.8576L577.535 75.8576L577.035 75.8576C577.035 86.9737 568.028 95.9846 556.918 95.9846V96.4846ZM577.535 75.8576H578.035C578.035 64.1896 568.581 54.7297 556.918 54.7297V55.2297V55.7297C568.028 55.7297 577.035 64.7413 577.035 75.8576H577.535Z" fill="#006F9E"/>
<path d="M319.724 114.468H299.05L299.758 69.6478C299.217 62.2052 304.717 53.8043 307.535 50.5342C318.22 36.0551 336.671 35.0294 344.561 36.3264V53.9175C322.65 58.1124 318.873 69.7614 319.724 75.0615V114.468Z" fill="#006F9E" stroke="#006F9E"/>
</g>
<defs>
<clipPath id="clip0_323_5431">
<rect width="692" height="151" rx="5" fill="white"/>
</clipPath>
</defs>
</svg>
